<mxfile host="app.diagrams.net" modified="2023-10-13T11:37:17.825Z" agent="Mozilla/5.0 (Macintosh; Intel Mac OS X 10_15_7) AppleWebKit/537.36 (KHTML, like Gecko) Chrome/117.0.0.0 Safari/537.36" version="21.8.0" etag="LddwkYoIhBcjST3yhjhh" type="github">
  <diagram name="Page-1" id="giWa0GHqFBHnvWRqJL2l">
    <mxGraphModel>
      <root>
        <mxCell id="0" />
        <mxCell id="1" parent="0" />
      </root>
    </mxGraphModel>
  </diagram>
</mxfile>
